<svg width="600" height="531" viewBox="0 0 600 531" fill="none" xmlns="http://www.w3.org/2000/svg">
<g clip-path="url(#clip0_511_136)">
<path d="M0.101562 164.93V89.84H287.232L323.302 90.02V164.92H0.101562V164.93Z" fill="white"/>
<path d="M313.362 164.56V89.84H525.152V73.05H328.852V0H599.682V164.56H313.352H313.362Z" fill="white"/>
<path d="M0.101562 345.89V270.8H302.732L340.752 270.98V345.88H0.101562V345.89Z" fill="white"/>
<path d="M342.044 180.96H415.844V270.81H434.844V180.78H506.794V270.81H524.324V180.96H597.384V345.52H323.234V270.8H342.054V180.95L342.044 180.96Z" fill="white"/>
<path d="M0 530.17V455.08H231.91L261.04 455.26V530.16H0V530.17Z" fill="white"/>
<path d="M359.059 529.8H219.029V455.08H284.709V365.23H359.239V455.08H421.229V529.98L359.059 529.8ZM190.109 365.47H263.169V437.05H190.109V365.47Z" fill="white"/>
<path d="M363.297 530.17V455.08H571.127L597.237 455.26V530.16H363.297V530.17Z" fill="white"/>
</g>
<defs>
<clipPath id="clip0_511_136">
<rect width="599.69" height="530.17" fill="white"/>
</clipPath>
</defs>
</svg>
